<svg width="369" height="90" viewBox="0 0 369 90" fill="none" xmlns="http://www.w3.org/2000/svg">
<rect width="369" height="90" rx="12" fill="#FEE500"/>
<g clip-path="url(#clip0_124_939)">
<path fill-rule="evenodd" clip-rule="evenodd" d="M66 28.2C56.0583 28.2 48 34.4259 48 42.1045C48 46.88 51.1168 51.0899 55.863 53.5939L53.8661 60.8889C53.6896 61.5335 54.4268 62.0473 54.9929 61.6738L63.7467 55.8964C64.4854 55.9676 65.2362 56.0093 66 56.0093C75.9409 56.0093 83.9999 49.7836 83.9999 42.1045C83.9999 34.4259 75.9409 28.2 66 28.2Z" fill="black"/>
</g>
<path d="M102.4 53.24V32.69H105.49V50.66H114.4V53.24H102.4ZM123.454 53.51C118.924 53.51 116.344 50.69 116.344 45.92V45.41C116.344 40.55 119.224 37.64 123.484 37.64C127.924 37.64 130.534 40.49 130.534 45.32V45.77C130.534 50.63 127.624 53.51 123.454 53.51ZM123.484 51.2C125.974 51.2 127.444 49.43 127.444 46.07V45.26C127.444 41.21 125.644 40.01 123.424 40.01C120.844 40.01 119.374 41.78 119.374 45.14V45.95C119.374 50 121.204 51.2 123.484 51.2ZM139.052 57.68C134.342 57.68 132.062 56.66 132.062 54.38C132.062 52.79 133.352 51.77 134.912 51.23V51.08C134.042 50.78 133.352 50.42 133.352 49.4C133.352 48.32 133.922 47.42 135.122 46.58C133.982 45.8 133.202 44.6 133.202 42.89V42.59C133.202 39.41 135.662 37.64 139.142 37.64C139.982 37.64 140.732 37.73 141.452 37.88H146.642V40.01H144.182C144.722 40.61 144.992 41.45 144.992 42.47V42.77C144.992 45.98 142.442 47.51 139.112 47.51C138.242 47.51 137.402 47.42 136.622 47.18C136.292 47.51 136.052 47.9 136.052 48.29C136.052 49.07 136.472 49.13 137.462 49.13H141.662C144.512 49.13 146.552 50.15 146.552 53.12C146.552 55.94 144.362 57.68 139.052 57.68ZM138.992 55.49C142.322 55.49 143.492 55.04 143.492 53.57C143.492 52.31 142.772 51.8 140.972 51.8H136.862C135.842 52.13 135.092 52.82 135.092 53.96C135.092 55.16 136.202 55.49 138.992 55.49ZM139.112 45.47C141.032 45.47 142.112 44.63 142.112 42.89V42.47C142.112 40.55 140.942 39.74 139.112 39.74C137.252 39.74 136.112 40.67 136.112 42.41V42.83C136.112 44.63 137.312 45.47 139.112 45.47ZM149.091 53.24V37.94H152.031V53.24H149.091ZM149.061 35.09V32.21H152.061V35.09H149.061ZM156.121 53.24V37.94H158.971V39.26H159.091C160.381 38.36 162.361 37.64 164.221 37.64C167.191 37.64 168.631 38.87 168.631 41.84V53.24H165.661V42.53C165.661 40.85 165.181 40.16 162.871 40.16C161.581 40.16 160.111 40.61 159.061 41.12V53.24H156.121ZM183.318 53.24L179.028 37.94H182.148L185.058 49.43H185.208L188.508 37.94H191.028L194.388 49.43H194.508L197.388 37.94H200.148L195.858 53.24H192.948L189.678 42.35H189.558L186.288 53.24H183.318ZM202.822 53.24V37.94H205.762V53.24H202.822ZM202.792 35.09V32.21H205.792V35.09H202.792ZM214.921 53.39C212.371 53.39 210.691 52.34 210.691 49.55V40.31H208.531V37.94H210.691V34.34H213.661V37.94H217.351V40.31H213.661V49.13C213.661 50.51 214.111 51.02 215.761 51.02C216.391 51.02 217.051 50.93 217.651 50.84V52.82C217.021 53.09 216.331 53.39 214.921 53.39ZM220.544 53.24V31.34H223.484V39.2H223.634C224.894 38.33 226.784 37.64 228.644 37.64C231.614 37.64 233.054 38.87 233.054 41.84V53.24H230.084V42.53C230.084 40.85 229.604 40.16 227.294 40.16C226.004 40.16 224.534 40.61 223.484 41.12V53.24H220.544ZM256.802 53.24L248.882 42.77L256.742 32.69H259.982L252.392 42.47L260.432 53.24H256.802ZM245.222 53.24V32.69H248.312V53.24H245.222ZM266.395 53.51C263.635 53.51 261.655 52.13 261.655 49.16C261.655 46.43 263.455 45.08 266.425 44.69L270.265 44.24V42.92C270.265 40.64 269.305 40.13 266.605 40.13C265.105 40.13 263.845 40.37 262.915 40.58V38.51C264.325 37.94 265.885 37.64 267.775 37.64C271.225 37.64 273.235 39.08 273.235 42.17V53.24H270.805L270.535 51.95H270.355C269.635 52.85 268.375 53.51 266.395 53.51ZM267.175 51.35C268.435 51.35 269.665 50.93 270.265 50.36V46.28L267.085 46.61C265.465 46.79 264.655 47.45 264.655 49.04C264.655 50.6 265.645 51.35 267.175 51.35ZM277.087 53.24V31.34H280.027V53.24H277.087ZM286.177 53.24L280.297 45.32L285.937 37.94H289.087L283.477 45.14L289.507 53.24H286.177ZM295.487 53.51C292.727 53.51 290.747 52.13 290.747 49.16C290.747 46.43 292.547 45.08 295.517 44.69L299.357 44.24V42.92C299.357 40.64 298.397 40.13 295.697 40.13C294.197 40.13 292.937 40.37 292.007 40.58V38.51C293.417 37.94 294.977 37.64 296.867 37.64C300.317 37.64 302.327 39.08 302.327 42.17V53.24H299.897L299.627 51.95H299.447C298.727 52.85 297.467 53.51 295.487 53.51ZM296.267 51.35C297.527 51.35 298.757 50.93 299.357 50.36V46.28L296.177 46.61C294.557 46.79 293.747 47.45 293.747 49.04C293.747 50.6 294.737 51.35 296.267 51.35ZM312.389 53.51C307.859 53.51 305.279 50.69 305.279 45.92V45.41C305.279 40.55 308.159 37.64 312.419 37.64C316.859 37.64 319.469 40.49 319.469 45.32V45.77C319.469 50.63 316.559 53.51 312.389 53.51ZM312.419 51.2C314.909 51.2 316.379 49.43 316.379 46.07V45.26C316.379 41.21 314.579 40.01 312.359 40.01C309.779 40.01 308.309 41.78 308.309 45.14V45.95C308.309 50 310.139 51.2 312.419 51.2Z" fill="black" fill-opacity="0.85"/>
<defs>
<clipPath id="clip0_124_939">
<rect width="35.9999" height="36" fill="white" transform="translate(48 27)"/>
</clipPath>
</defs>
</svg>
