<svg width="100" height="100" viewBox="0 0 100 100" fill="none" xmlns="http://www.w3.org/2000/svg">
<path d="M86.8333 9.08325L70.4583 12.3333L81.875 27.0832L90.0833 25.4166L86.8333 9.08325ZM58.2083 14.7499L50 16.3749L61.4583 31.0833L69.625 29.4583L58.2083 14.7499ZM37.7916 18.7499L29.5833 20.4583L41.0416 35.1666L49.2083 33.5416L37.7916 18.7499ZM17.3333 22.9166L13.25 23.7083C11.0849 24.1408 9.17997 25.4149 7.95347 27.2508C6.72697 29.0866 6.27913 31.3342 6.7083 33.4999L8.3333 41.6666L28.75 37.6249L17.3333 22.9166ZM8.3333 41.6666V83.3332C8.3333 85.5434 9.21127 87.663 10.7741 89.2258C12.3369 90.7886 14.4565 91.6666 16.6666 91.6666H83.3333C87.9583 91.6666 91.6666 87.9582 91.6666 83.3332V41.6666H8.3333Z" fill="url(#paint0_linear_113_29)"/>
<defs>
<linearGradient id="paint0_linear_113_29" x1="49.108" y1="9.08325" x2="49.108" y2="91.6666" gradientUnits="userSpaceOnUse">
<stop stop-color="#830002"/>
<stop offset="0.749" stop-color="#030000"/>
</linearGradient>
</defs>
</svg>
